<?xml version="1.0" encoding="UTF-8"?>
<!DOCTYPE score-partwise PUBLIC "-//Recordare//DTD MusicXML 3.0 Partwise//EN" "http://www.musicxml.org/dtds/partwise.dtd">
<score-partwise>
  <identification>
    <encoding>
      <software>MuseScore 2.0.2</software>
      <encoding-date>2015-09-03</encoding-date>
      <supports element="accidental" type="yes"/>
      <supports element="beam" type="yes"/>
      <supports element="print" attribute="new-page" type="yes" value="yes"/>
      <supports element="print" attribute="new-system" type="yes" value="yes"/>
      <supports element="stem" type="yes"/>
      </encoding>
    <source>http://api.musescore.com/score/1174381</source>
    </identification>
  <defaults>
    <scaling>
      <millimeters>5.456</millimeters>
      <tenths>40</tenths>
      </scaling>
    <page-layout>
      <page-height>2177.42</page-height>
      <page-width>1539.59</page-width>
      <page-margins type="even">
        <left-margin>73.3138</left-margin>
        <right-margin>73.3138</right-margin>
        <top-margin>73.3138</top-margin>
        <bottom-margin>146.628</bottom-margin>
        </page-margins>
      <page-margins type="odd">
        <left-margin>73.3138</left-margin>
        <right-margin>73.3138</right-margin>
        <top-margin>73.3138</top-margin>
        <bottom-margin>146.628</bottom-margin>
        </page-margins>
      </page-layout>
    <word-font font-family="FreeSerif" font-size="10"/>
    <lyric-font font-family="FreeSerif" font-size="11"/>
    </defaults>
  <credit page="1">
    <credit-words default-x="769.795" default-y="2104.11" justify="center" valign="top" font-family="Times New Roman" font-size="24">Kaeru no uta ga</credit-words>
    </credit>
  <credit page="1">
    <credit-words default-x="769.795" default-y="1898.89" justify="center" valign="top" font-family="Times New Roman" font-size="14">Japanese Frog Song</credit-words>
    </credit>
  <part-list>
    <score-part id="P1">
      <part-name>Voice</part-name>
      <part-abbreviation>Vo.</part-abbreviation>
      <score-instrument id="P1-I1">
        <instrument-name>Voice</instrument-name>
        </score-instrument>
      <midi-device id="P1-I1" port="1"></midi-device>
      <midi-instrument id="P1-I1">
        <midi-channel>1</midi-channel>
        <midi-program>53</midi-program>
        <volume>78.7402</volume>
        <pan>0</pan>
        </midi-instrument>
      </score-part>
    <score-part id="P2">
      <part-name>Piano</part-name>
      <part-abbreviation>Pno.</part-abbreviation>
      <score-instrument id="P2-I1">
        <instrument-name>Piano</instrument-name>
        </score-instrument>
      <midi-device id="P2-I1" port="1"></midi-device>
      <midi-instrument id="P2-I1">
        <midi-channel>2</midi-channel>
        <midi-program>1</midi-program>
        <volume>78.7402</volume>
        <pan>0</pan>
        </midi-instrument>
      </score-part>
    <part-group type="start" number="1">
      <group-symbol>brace</group-symbol>
      </part-group>
    <score-part id="P3">
      <part-name>Piano</part-name>
      <part-abbreviation>Pno.</part-abbreviation>
      <score-instrument id="P3-I1">
        <instrument-name>Piano</instrument-name>
        </score-instrument>
      <midi-device id="P3-I1" port="1"></midi-device>
      <midi-instrument id="P3-I1">
        <midi-channel>3</midi-channel>
        <midi-program>1</midi-program>
        <volume>78.7402</volume>
        <pan>0</pan>
        </midi-instrument>
      </score-part>
    </part-list>
  <part id="P1">
    <measure number="1" width="222.12">
      <print>
        <system-layout>
          <system-margins>
            <left-margin>87.70</left-margin>
            <right-margin>-0.00</right-margin>
            </system-margins>
          <top-system-distance>180.00</top-system-distance>
          </system-layout>
        </print>
      <attributes>
        <divisions>2</divisions>
        <key>
          <fifths>0</fifths>
          </key>
        <time>
          <beats>4</beats>
          <beat-type>4</beat-type>
          </time>
        <clef>
          <sign>G</sign>
          <line>2</line>
          </clef>
        </attributes>
      <note default-x="81.48" default-y="-50.00">
        <pitch>
          <step>C</step>
          <octave>4</octave>
          </pitch>
        <duration>2</duration>
        <voice>1</voice>
        <type>quarter</type>
        <stem>up</stem>
        <lyric number="1">
          <syllabic>single</syllabic>
          <text font-family="Times New Roman">Ka</text>
          </lyric>
        <lyric number="2">
          <syllabic>single</syllabic>
          <text font-family="Times New Roman">C</text>
          </lyric>
        </note>
      <note default-x="116.24" default-y="-45.00">
        <pitch>
          <step>D</step>
          <octave>4</octave>
          </pitch>
        <duration>2</duration>
        <voice>1</voice>
        <type>quarter</type>
        <stem>up</stem>
        <lyric number="1">
          <syllabic>single</syllabic>
          <text font-family="Times New Roman">e</text>
          </lyric>
        <lyric number="2">
          <syllabic>single</syllabic>
          <text font-family="Times New Roman">D</text>
          </lyric>
        </note>
      <note default-x="151.00" default-y="-40.00">
        <pitch>
          <step>E</step>
          <octave>4</octave>
          </pitch>
        <duration>2</duration>
        <voice>1</voice>
        <type>quarter</type>
        <stem>up</stem>
        <lyric number="1">
          <syllabic>single</syllabic>
          <text font-family="Times New Roman">ru</text>
          </lyric>
        <lyric number="2">
          <syllabic>single</syllabic>
          <text font-family="Times New Roman">E</text>
          </lyric>
        </note>
      <note default-x="185.76" default-y="-35.00">
        <pitch>
          <step>F</step>
          <octave>4</octave>
          </pitch>
        <duration>2</duration>
        <voice>1</voice>
        <type>quarter</type>
        <stem>up</stem>
        <lyric number="1">
          <syllabic>single</syllabic>
          <text font-family="Times New Roman">no</text>
          </lyric>
        <lyric number="2">
          <syllabic>single</syllabic>
          <text font-family="Times New Roman">F</text>
          </lyric>
        </note>
      </measure>
    <measure number="2" width="146.83">
      <note default-x="12.26" default-y="-40.00">
        <pitch>
          <step>E</step>
          <octave>4</octave>
          </pitch>
        <duration>2</duration>
        <voice>1</voice>
        <type>quarter</type>
        <stem>up</stem>
        <lyric number="1">
          <syllabic>single</syllabic>
          <text font-family="Times New Roman">u</text>
          </lyric>
        <lyric number="2">
          <syllabic>single</syllabic>
          <text font-family="Times New Roman">E</text>
          </lyric>
        </note>
      <note default-x="45.50" default-y="-45.00">
        <pitch>
          <step>D</step>
          <octave>4</octave>
          </pitch>
        <duration>2</duration>
        <voice>1</voice>
        <type>quarter</type>
        <stem>up</stem>
        <lyric number="1">
          <syllabic>single</syllabic>
          <text font-family="Times New Roman">ta</text>
          </lyric>
        <lyric number="2">
          <syllabic>single</syllabic>
          <text font-family="Times New Roman">D</text>
          </lyric>
        </note>
      <note default-x="78.75" default-y="-50.00">
        <pitch>
          <step>C</step>
          <octave>4</octave>
          </pitch>
        <duration>2</duration>
        <voice>1</voice>
        <type>quarter</type>
        <stem>up</stem>
        <lyric number="1">
          <syllabic>single</syllabic>
          <text font-family="Times New Roman">ga</text>
          </lyric>
        <lyric number="2">
          <syllabic>single</syllabic>
          <text font-family="Times New Roman">C</text>
          </lyric>
        </note>
      <note>
        <rest/>
        <duration>2</duration>
        <voice>1</voice>
        <type>quarter</type>
        </note>
      </measure>
    <measure number="3" width="165.42">
      <note default-x="18.45" default-y="-40.00">
        <pitch>
          <step>E</step>
          <octave>4</octave>
          </pitch>
        <duration>2</duration>
        <voice>1</voice>
        <type>quarter</type>
        <stem>up</stem>
        <lyric number="1">
          <syllabic>single</syllabic>
          <text font-family="Times New Roman">Ki</text>
          </lyric>
        <lyric number="2">
          <syllabic>single</syllabic>
          <text font-family="Times New Roman">E</text>
          </lyric>
        </note>
      <note default-x="54.80" default-y="-35.00">
        <pitch>
          <step>F</step>
          <octave>4</octave>
          </pitch>
        <duration>2</duration>
        <voice>1</voice>
        <type>quarter</type>
        <stem>up</stem>
        <lyric number="1">
          <syllabic>single</syllabic>
          <text font-family="Times New Roman">ko</text>
          </lyric>
        <lyric number="2">
          <syllabic>single</syllabic>
          <text font-family="Times New Roman">F</text>
          </lyric>
        </note>
      <note default-x="91.14" default-y="-30.00">
        <pitch>
          <step>G</step>
          <octave>4</octave>
          </pitch>
        <duration>2</duration>
        <voice>1</voice>
        <type>quarter</type>
        <stem>up</stem>
        <lyric number="1">
          <syllabic>single</syllabic>
          <text font-family="Times New Roman">e</text>
          </lyric>
        <lyric number="2">
          <syllabic>single</syllabic>
          <text font-family="Times New Roman">G</text>
          </lyric>
        </note>
      <note default-x="127.48" default-y="-25.00">
        <pitch>
          <step>A</step>
          <octave>4</octave>
          </pitch>
        <duration>2</duration>
        <voice>1</voice>
        <type>quarter</type>
        <stem>up</stem>
        <lyric number="1">
          <syllabic>single</syllabic>
          <text font-family="Times New Roman">ke</text>
          </lyric>
        <lyric number="2">
          <syllabic>single</syllabic>
          <text font-family="Times New Roman">A</text>
          </lyric>
        </note>
      </measure>
    <measure number="4" width="154.95">
      <note default-x="16.62" default-y="-30.00">
        <pitch>
          <step>G</step>
          <octave>4</octave>
          </pitch>
        <duration>2</duration>
        <voice>1</voice>
        <type>quarter</type>
        <stem>up</stem>
        <lyric number="1">
          <syllabic>single</syllabic>
          <text font-family="Times New Roman">ku</text>
          </lyric>
        <lyric number="2">
          <syllabic>single</syllabic>
          <text font-family="Times New Roman">G</text>
          </lyric>
        </note>
      <note default-x="50.80" default-y="-35.00">
        <pitch>
          <step>F</step>
          <octave>4</octave>
          </pitch>
        <duration>2</duration>
        <voice>1</voice>
        <type>quarter</type>
        <stem>up</stem>
        <lyric number="1">
          <syllabic>single</syllabic>
          <text font-family="Times New Roman">ru</text>
          </lyric>
        <lyric number="2">
          <syllabic>single</syllabic>
          <text font-family="Times New Roman">F</text>
          </lyric>
        </note>
      <note default-x="84.98" default-y="-40.00">
        <pitch>
          <step>E</step>
          <octave>4</octave>
          </pitch>
        <duration>2</duration>
        <voice>1</voice>
        <type>quarter</type>
        <stem>up</stem>
        <lyric number="1">
          <syllabic>single</syllabic>
          <text font-family="Times New Roman">yo</text>
          </lyric>
        <lyric number="2">
          <syllabic>single</syllabic>
          <text font-family="Times New Roman">E</text>
          </lyric>
        </note>
      <note>
        <rest/>
        <duration>2</duration>
        <voice>1</voice>
        <type>quarter</type>
        </note>
      </measure>
    <measure number="5" width="170.30">
      <note default-x="21.22" default-y="-50.00">
        <pitch>
          <step>C</step>
          <octave>4</octave>
          </pitch>
        <duration>4</duration>
        <voice>1</voice>
        <type>half</type>
        <stem>up</stem>
        <lyric number="1">
          <syllabic>single</syllabic>
          <text font-family="Times New Roman">gua</text>
          </lyric>
        <lyric number="2">
          <syllabic>single</syllabic>
          <text font-family="Times New Roman">C</text>
          </lyric>
        </note>
      <note default-x="94.79" default-y="-50.00">
        <pitch>
          <step>C</step>
          <octave>4</octave>
          </pitch>
        <duration>4</duration>
        <voice>1</voice>
        <type>half</type>
        <stem>up</stem>
        <lyric number="1">
          <syllabic>single</syllabic>
          <text font-family="Times New Roman">gua</text>
          </lyric>
        <lyric number="2">
          <syllabic>single</syllabic>
          <text font-family="Times New Roman">C</text>
          </lyric>
        </note>
      </measure>
    <measure number="6" width="156.12">
      <note default-x="21.22" default-y="-50.00">
        <pitch>
          <step>C</step>
          <octave>4</octave>
          </pitch>
        <duration>4</duration>
        <voice>1</voice>
        <type>half</type>
        <stem>up</stem>
        <lyric number="1">
          <syllabic>single</syllabic>
          <text font-family="Times New Roman">gua</text>
          </lyric>
        <lyric number="2">
          <syllabic>single</syllabic>
          <text font-family="Times New Roman">C</text>
          </lyric>
        </note>
      <note default-x="87.70" default-y="-50.00">
        <pitch>
          <step>C</step>
          <octave>4</octave>
          </pitch>
        <duration>4</duration>
        <voice>1</voice>
        <type>half</type>
        <stem>up</stem>
        <lyric number="1">
          <syllabic>single</syllabic>
          <text font-family="Times New Roman">gua</text>
          </lyric>
        <lyric number="2">
          <syllabic>single</syllabic>
          <text font-family="Times New Roman">C</text>
          </lyric>
        </note>
      </measure>
    <measure number="7" width="289.52">
      <note default-x="22.20" default-y="-50.00">
        <pitch>
          <step>C</step>
          <octave>4</octave>
          </pitch>
        <duration>1</duration>
        <voice>1</voice>
        <type>eighth</type>
        <stem>up</stem>
        <beam number="1">begin</beam>
        <lyric number="1">
          <syllabic>begin</syllabic>
          <text font-family="Times New Roman">ker</text>
          </lyric>
        <lyric number="2">
          <syllabic>single</syllabic>
          <text font-family="Times New Roman">C</text>
          </lyric>
        </note>
      <note default-x="55.41" default-y="-50.00">
        <pitch>
          <step>C</step>
          <octave>4</octave>
          </pitch>
        <duration>1</duration>
        <voice>1</voice>
        <type>eighth</type>
        <stem>up</stem>
        <beam number="1">end</beam>
        <lyric number="1">
          <syllabic>end</syllabic>
          <text font-family="Times New Roman">ro</text>
          </lyric>
        <lyric number="2">
          <syllabic>single</syllabic>
          <text font-family="Times New Roman">C</text>
          </lyric>
        </note>
      <note default-x="88.63" default-y="-45.00">
        <pitch>
          <step>D</step>
          <octave>4</octave>
          </pitch>
        <duration>1</duration>
        <voice>1</voice>
        <type>eighth</type>
        <stem>up</stem>
        <beam number="1">begin</beam>
        <lyric number="1">
          <syllabic>begin</syllabic>
          <text font-family="Times New Roman">ker</text>
          </lyric>
        <lyric number="2">
          <syllabic>single</syllabic>
          <text font-family="Times New Roman">D</text>
          </lyric>
        </note>
      <note default-x="121.84" default-y="-45.00">
        <pitch>
          <step>D</step>
          <octave>4</octave>
          </pitch>
        <duration>1</duration>
        <voice>1</voice>
        <type>eighth</type>
        <stem>up</stem>
        <beam number="1">end</beam>
        <lyric number="1">
          <syllabic>end</syllabic>
          <text font-family="Times New Roman">ro</text>
          </lyric>
        <lyric number="2">
          <syllabic>single</syllabic>
          <text font-family="Times New Roman">D</text>
          </lyric>
        </note>
      <note default-x="155.06" default-y="-40.00">
        <pitch>
          <step>E</step>
          <octave>4</octave>
          </pitch>
        <duration>1</duration>
        <voice>1</voice>
        <type>eighth</type>
        <stem>up</stem>
        <beam number="1">begin</beam>
        <lyric number="1">
          <syllabic>begin</syllabic>
          <text font-family="Times New Roman">ker</text>
          </lyric>
        <lyric number="2">
          <syllabic>single</syllabic>
          <text font-family="Times New Roman">E</text>
          </lyric>
        </note>
      <note default-x="188.27" default-y="-40.00">
        <pitch>
          <step>E</step>
          <octave>4</octave>
          </pitch>
        <duration>1</duration>
        <voice>1</voice>
        <type>eighth</type>
        <stem>up</stem>
        <beam number="1">end</beam>
        <lyric number="1">
          <syllabic>end</syllabic>
          <text font-family="Times New Roman">ro</text>
          </lyric>
        <lyric number="2">
          <syllabic>single</syllabic>
          <text font-family="Times New Roman">E</text>
          </lyric>
        </note>
      <note default-x="221.49" default-y="-35.00">
        <pitch>
          <step>F</step>
          <octave>4</octave>
          </pitch>
        <duration>1</duration>
        <voice>1</voice>
        <type>eighth</type>
        <stem>up</stem>
        <beam number="1">begin</beam>
        <lyric number="1">
          <syllabic>begin</syllabic>
          <text font-family="Times New Roman">ker</text>
          </lyric>
        <lyric number="2">
          <syllabic>single</syllabic>
          <text font-family="Times New Roman">F</text>
          </lyric>
        </note>
      <note default-x="254.70" default-y="-35.00">
        <pitch>
          <step>F</step>
          <octave>4</octave>
          </pitch>
        <duration>1</duration>
        <voice>1</voice>
        <type>eighth</type>
        <stem>up</stem>
        <beam number="1">end</beam>
        <lyric number="1">
          <syllabic>end</syllabic>
          <text font-family="Times New Roman">ro</text>
          </lyric>
        <lyric number="2">
          <syllabic>single</syllabic>
          <text font-family="Times New Roman">F</text>
          </lyric>
        </note>
      </measure>
    <measure number="8" width="251.62">
      <print new-system="yes">
        <system-layout>
          <system-margins>
            <left-margin>76.28</left-margin>
            <right-margin>-0.00</right-margin>
            </system-margins>
          <system-distance>191.11</system-distance>
          </system-layout>
        </print>
      <note default-x="59.14" default-y="-40.00">
        <pitch>
          <step>E</step>
          <octave>4</octave>
          </pitch>
        <duration>2</duration>
        <voice>1</voice>
        <type>quarter</type>
        <stem>up</stem>
        <lyric number="1">
          <syllabic>single</syllabic>
          <text font-family="Times New Roman">gua</text>
          </lyric>
        <lyric number="2">
          <syllabic>single</syllabic>
          <text font-family="Times New Roman">E</text>
          </lyric>
        </note>
      <note default-x="106.86" default-y="-45.00">
        <pitch>
          <step>D</step>
          <octave>4</octave>
          </pitch>
        <duration>2</duration>
        <voice>1</voice>
        <type>quarter</type>
        <stem>up</stem>
        <lyric number="1">
          <syllabic>single</syllabic>
          <text font-family="Times New Roman">gua</text>
          </lyric>
        <lyric number="2">
          <syllabic>single</syllabic>
          <text font-family="Times New Roman">D</text>
          </lyric>
        </note>
      <note default-x="154.58" default-y="-50.00">
        <pitch>
          <step>C</step>
          <octave>4</octave>
          </pitch>
        <duration>2</duration>
        <voice>1</voice>
        <type>quarter</type>
        <stem>up</stem>
        <lyric number="1">
          <syllabic>single</syllabic>
          <text font-family="Times New Roman">gua!</text>
          </lyric>
        <lyric number="2">
          <syllabic>single</syllabic>
          <text font-family="Times New Roman">C</text>
          </lyric>
        </note>
      <note>
        <rest/>
        <duration>2</duration>
        <voice>1</voice>
        <type>quarter</type>
        </note>
      </measure>
    <measure number="9" width="312.09">
      <note>
        <rest/>
        <duration>8</duration>
        <voice>1</voice>
        </note>
      </measure>
    <measure number="10" width="215.29">
      <note>
        <rest/>
        <duration>8</duration>
        <voice>1</voice>
        </note>
      </measure>
    <measure number="11" width="314.40">
      <note>
        <rest/>
        <duration>8</duration>
        <voice>1</voice>
        </note>
      </measure>
    <measure number="12" width="223.29">
      <note>
        <rest/>
        <duration>8</duration>
        <voice>1</voice>
        </note>
      <barline location="right">
        <bar-style>light-heavy</bar-style>
        </barline>
      </measure>
    </part>
  <part id="P2">
    <measure number="1" width="222.12">
      <print>
        <staff-layout number="1">
          <staff-distance>126.11</staff-distance>
          </staff-layout>
        </print>
      <attributes>
        <divisions>2</divisions>
        <key>
          <fifths>0</fifths>
          </key>
        <time>
          <beats>4</beats>
          <beat-type>4</beat-type>
          </time>
        <clef>
          <sign>G</sign>
          <line>2</line>
          </clef>
        </attributes>
      <note>
        <rest/>
        <duration>8</duration>
        <voice>1</voice>
        </note>
      </measure>
    <measure number="2" width="146.83">
      <note>
        <rest/>
        <duration>8</duration>
        <voice>1</voice>
        </note>
      </measure>
    <measure number="3" width="165.42">
      <note default-x="18.45" default-y="-216.11">
        <pitch>
          <step>C</step>
          <octave>4</octave>
          </pitch>
        <duration>2</duration>
        <voice>1</voice>
        <type>quarter</type>
        <stem>up</stem>
        <lyric number="1">
          <syllabic>single</syllabic>
          <text font-family="Times New Roman">Ka</text>
          </lyric>
        <lyric number="2">
          <syllabic>single</syllabic>
          <text font-family="Times New Roman">ta</text>
          </lyric>
        </note>
      <note default-x="54.80" default-y="-211.11">
        <pitch>
          <step>D</step>
          <octave>4</octave>
          </pitch>
        <duration>2</duration>
        <voice>1</voice>
        <type>quarter</type>
        <stem>up</stem>
        <lyric number="1">
          <syllabic>single</syllabic>
          <text font-family="Times New Roman">e</text>
          </lyric>
        <lyric number="2">
          <syllabic>single</syllabic>
          <text font-family="Times New Roman">ta</text>
          </lyric>
        </note>
      <note default-x="91.14" default-y="-206.11">
        <pitch>
          <step>E</step>
          <octave>4</octave>
          </pitch>
        <duration>2</duration>
        <voice>1</voice>
        <type>quarter</type>
        <stem>up</stem>
        <lyric number="1">
          <syllabic>single</syllabic>
          <text font-family="Times New Roman">ru</text>
          </lyric>
        <lyric number="2">
          <syllabic>single</syllabic>
          <text font-family="Times New Roman">ta</text>
          </lyric>
        </note>
      <note default-x="127.48" default-y="-201.11">
        <pitch>
          <step>F</step>
          <octave>4</octave>
          </pitch>
        <duration>2</duration>
        <voice>1</voice>
        <type>quarter</type>
        <stem>up</stem>
        <lyric number="1">
          <syllabic>single</syllabic>
          <text font-family="Times New Roman">no</text>
          </lyric>
        <lyric number="2">
          <syllabic>single</syllabic>
          <text font-family="Times New Roman">ta</text>
          </lyric>
        </note>
      </measure>
    <measure number="4" width="154.95">
      <note default-x="16.62" default-y="-206.11">
        <pitch>
          <step>E</step>
          <octave>4</octave>
          </pitch>
        <duration>2</duration>
        <voice>1</voice>
        <type>quarter</type>
        <stem>up</stem>
        <lyric number="1">
          <syllabic>single</syllabic>
          <text font-family="Times New Roman">u</text>
          </lyric>
        <lyric number="2">
          <syllabic>single</syllabic>
          <text font-family="Times New Roman">ta</text>
          </lyric>
        </note>
      <note default-x="50.80" default-y="-211.11">
        <pitch>
          <step>D</step>
          <octave>4</octave>
          </pitch>
        <duration>2</duration>
        <voice>1</voice>
        <type>quarter</type>
        <stem>up</stem>
        <lyric number="1">
          <syllabic>single</syllabic>
          <text font-family="Times New Roman">ta</text>
          </lyric>
        <lyric number="2">
          <syllabic>single</syllabic>
          <text font-family="Times New Roman">ta</text>
          </lyric>
        </note>
      <note default-x="84.98" default-y="-216.11">
        <pitch>
          <step>C</step>
          <octave>4</octave>
          </pitch>
        <duration>2</duration>
        <voice>1</voice>
        <type>quarter</type>
        <stem>up</stem>
        <lyric number="1">
          <syllabic>single</syllabic>
          <text font-family="Times New Roman">ga</text>
          </lyric>
        <lyric number="2">
          <syllabic>single</syllabic>
          <text font-family="Times New Roman">ta</text>
          </lyric>
        </note>
      <note>
        <rest/>
        <duration>2</duration>
        <voice>1</voice>
        <type>quarter</type>
        </note>
      </measure>
    <measure number="5" width="170.30">
      <note default-x="21.57" default-y="-206.11">
        <pitch>
          <step>E</step>
          <octave>4</octave>
          </pitch>
        <duration>2</duration>
        <voice>1</voice>
        <type>quarter</type>
        <stem>up</stem>
        <lyric number="1">
          <syllabic>single</syllabic>
          <text font-family="Times New Roman">Ki</text>
          </lyric>
        <lyric number="2">
          <syllabic>single</syllabic>
          <text font-family="Times New Roman">ta</text>
          </lyric>
        </note>
      <note default-x="58.35" default-y="-201.11">
        <pitch>
          <step>F</step>
          <octave>4</octave>
          </pitch>
        <duration>2</duration>
        <voice>1</voice>
        <type>quarter</type>
        <stem>up</stem>
        <lyric number="1">
          <syllabic>single</syllabic>
          <text font-family="Times New Roman">ko</text>
          </lyric>
        <lyric number="2">
          <syllabic>single</syllabic>
          <text font-family="Times New Roman">ta</text>
          </lyric>
        </note>
      <note default-x="95.14" default-y="-196.11">
        <pitch>
          <step>G</step>
          <octave>4</octave>
          </pitch>
        <duration>2</duration>
        <voice>1</voice>
        <type>quarter</type>
        <stem>up</stem>
        <lyric number="1">
          <syllabic>single</syllabic>
          <text font-family="Times New Roman">e</text>
          </lyric>
        <lyric number="2">
          <syllabic>single</syllabic>
          <text font-family="Times New Roman">ta</text>
          </lyric>
        </note>
      <note default-x="131.92" default-y="-191.11">
        <pitch>
          <step>A</step>
          <octave>4</octave>
          </pitch>
        <duration>2</duration>
        <voice>1</voice>
        <type>quarter</type>
        <stem>up</stem>
        <lyric number="1">
          <syllabic>single</syllabic>
          <text font-family="Times New Roman">ke</text>
          </lyric>
        <lyric number="2">
          <syllabic>single</syllabic>
          <text font-family="Times New Roman">ta</text>
          </lyric>
        </note>
      </measure>
    <measure number="6" width="156.12">
      <note default-x="21.57" default-y="-196.11">
        <pitch>
          <step>G</step>
          <octave>4</octave>
          </pitch>
        <duration>2</duration>
        <voice>1</voice>
        <type>quarter</type>
        <stem>up</stem>
        <lyric number="1">
          <syllabic>single</syllabic>
          <text font-family="Times New Roman">ku</text>
          </lyric>
        <lyric number="2">
          <syllabic>single</syllabic>
          <text font-family="Times New Roman">ta</text>
          </lyric>
        </note>
      <note default-x="54.81" default-y="-201.11">
        <pitch>
          <step>F</step>
          <octave>4</octave>
          </pitch>
        <duration>2</duration>
        <voice>1</voice>
        <type>quarter</type>
        <stem>up</stem>
        <lyric number="1">
          <syllabic>single</syllabic>
          <text font-family="Times New Roman">ru</text>
          </lyric>
        <lyric number="2">
          <syllabic>single</syllabic>
          <text font-family="Times New Roman">ta</text>
          </lyric>
        </note>
      <note default-x="88.05" default-y="-206.11">
        <pitch>
          <step>E</step>
          <octave>4</octave>
          </pitch>
        <duration>2</duration>
        <voice>1</voice>
        <type>quarter</type>
        <stem>up</stem>
        <lyric number="1">
          <syllabic>single</syllabic>
          <text font-family="Times New Roman">yo</text>
          </lyric>
        <lyric number="2">
          <syllabic>single</syllabic>
          <text font-family="Times New Roman">ta</text>
          </lyric>
        </note>
      <note>
        <rest/>
        <duration>2</duration>
        <voice>1</voice>
        <type>quarter</type>
        </note>
      </measure>
    <measure number="7" width="289.52">
      <note default-x="21.85" default-y="-216.11">
        <pitch>
          <step>C</step>
          <octave>4</octave>
          </pitch>
        <duration>4</duration>
        <voice>1</voice>
        <type>half</type>
        <stem>up</stem>
        <lyric number="1">
          <syllabic>single</syllabic>
          <text font-family="Times New Roman">gua</text>
          </lyric>
        <lyric number="2">
          <syllabic>single</syllabic>
          <text font-family="Times New Roman">two</text>
          </lyric>
        </note>
      <note default-x="154.71" default-y="-216.11">
        <pitch>
          <step>C</step>
          <octave>4</octave>
          </pitch>
        <duration>4</duration>
        <voice>1</voice>
        <type>half</type>
        <stem>up</stem>
        <lyric number="1">
          <syllabic>single</syllabic>
          <text font-family="Times New Roman">gua</text>
          </lyric>
        <lyric number="2">
          <syllabic>single</syllabic>
          <text font-family="Times New Roman">two</text>
          </lyric>
        </note>
      </measure>
    <measure number="8" width="251.62">
      <print new-system="yes">
        <staff-layout number="1">
          <staff-distance>126.11</staff-distance>
          </staff-layout>
        </print>
      <note default-x="58.80" default-y="-216.11">
        <pitch>
          <step>C</step>
          <octave>4</octave>
          </pitch>
        <duration>4</duration>
        <voice>1</voice>
        <type>half</type>
        <stem>up</stem>
        <lyric number="1">
          <syllabic>single</syllabic>
          <text font-family="Times New Roman">gua</text>
          </lyric>
        <lyric number="2">
          <syllabic>single</syllabic>
          <text font-family="Times New Roman">two</text>
          </lyric>
        </note>
      <note default-x="154.23" default-y="-216.11">
        <pitch>
          <step>C</step>
          <octave>4</octave>
          </pitch>
        <duration>4</duration>
        <voice>1</voice>
        <type>half</type>
        <stem>up</stem>
        <lyric number="1">
          <syllabic>single</syllabic>
          <text font-family="Times New Roman">gua</text>
          </lyric>
        <lyric number="2">
          <syllabic>single</syllabic>
          <text font-family="Times New Roman">two</text>
          </lyric>
        </note>
      </measure>
    <measure number="9" width="312.09">
      <note default-x="21.57" default-y="-216.11">
        <pitch>
          <step>C</step>
          <octave>4</octave>
          </pitch>
        <duration>1</duration>
        <voice>1</voice>
        <type>eighth</type>
        <stem>up</stem>
        <beam number="1">begin</beam>
        <lyric number="1">
          <syllabic>begin</syllabic>
          <text font-family="Times New Roman">ker</text>
          </lyric>
        <lyric number="2">
          <syllabic>begin</syllabic>
          <text font-family="Times New Roman">ti</text>
          </lyric>
        </note>
      <note default-x="57.69" default-y="-216.11">
        <pitch>
          <step>C</step>
          <octave>4</octave>
          </pitch>
        <duration>1</duration>
        <voice>1</voice>
        <type>eighth</type>
        <stem>up</stem>
        <beam number="1">end</beam>
        <lyric number="1">
          <syllabic>end</syllabic>
          <text font-family="Times New Roman">ro</text>
          </lyric>
        <lyric number="2">
          <syllabic>end</syllabic>
          <text font-family="Times New Roman">ti</text>
          </lyric>
        </note>
      <note default-x="93.80" default-y="-211.11">
        <pitch>
          <step>D</step>
          <octave>4</octave>
          </pitch>
        <duration>1</duration>
        <voice>1</voice>
        <type>eighth</type>
        <stem>up</stem>
        <beam number="1">begin</beam>
        <lyric number="1">
          <syllabic>begin</syllabic>
          <text font-family="Times New Roman">ker</text>
          </lyric>
        <lyric number="2">
          <syllabic>begin</syllabic>
          <text font-family="Times New Roman">ti</text>
          </lyric>
        </note>
      <note default-x="129.92" default-y="-211.11">
        <pitch>
          <step>D</step>
          <octave>4</octave>
          </pitch>
        <duration>1</duration>
        <voice>1</voice>
        <type>eighth</type>
        <stem>up</stem>
        <beam number="1">end</beam>
        <lyric number="1">
          <syllabic>end</syllabic>
          <text font-family="Times New Roman">ro</text>
          </lyric>
        <lyric number="2">
          <syllabic>end</syllabic>
          <text font-family="Times New Roman">ti</text>
          </lyric>
        </note>
      <note default-x="166.03" default-y="-206.11">
        <pitch>
          <step>E</step>
          <octave>4</octave>
          </pitch>
        <duration>1</duration>
        <voice>1</voice>
        <type>eighth</type>
        <stem>up</stem>
        <beam number="1">begin</beam>
        <lyric number="1">
          <syllabic>begin</syllabic>
          <text font-family="Times New Roman">ker</text>
          </lyric>
        <lyric number="2">
          <syllabic>begin</syllabic>
          <text font-family="Times New Roman">ti</text>
          </lyric>
        </note>
      <note default-x="202.15" default-y="-206.11">
        <pitch>
          <step>E</step>
          <octave>4</octave>
          </pitch>
        <duration>1</duration>
        <voice>1</voice>
        <type>eighth</type>
        <stem>up</stem>
        <beam number="1">end</beam>
        <lyric number="1">
          <syllabic>end</syllabic>
          <text font-family="Times New Roman">ro</text>
          </lyric>
        <lyric number="2">
          <syllabic>end</syllabic>
          <text font-family="Times New Roman">ti</text>
          </lyric>
        </note>
      <note default-x="238.26" default-y="-201.11">
        <pitch>
          <step>F</step>
          <octave>4</octave>
          </pitch>
        <duration>1</duration>
        <voice>1</voice>
        <type>eighth</type>
        <stem>up</stem>
        <beam number="1">begin</beam>
        <lyric number="1">
          <syllabic>begin</syllabic>
          <text font-family="Times New Roman">ker</text>
          </lyric>
        <lyric number="2">
          <syllabic>begin</syllabic>
          <text font-family="Times New Roman">ti</text>
          </lyric>
        </note>
      <note default-x="274.38" default-y="-201.11">
        <pitch>
          <step>F</step>
          <octave>4</octave>
          </pitch>
        <duration>1</duration>
        <voice>1</voice>
        <type>eighth</type>
        <stem>up</stem>
        <beam number="1">end</beam>
        <lyric number="1">
          <syllabic>end</syllabic>
          <text font-family="Times New Roman">ro</text>
          </lyric>
        <lyric number="2">
          <syllabic>end</syllabic>
          <text font-family="Times New Roman">ti</text>
          </lyric>
        </note>
      </measure>
    <measure number="10" width="215.29">
      <note default-x="21.57" default-y="-206.11">
        <pitch>
          <step>E</step>
          <octave>4</octave>
          </pitch>
        <duration>2</duration>
        <voice>1</voice>
        <type>quarter</type>
        <stem>up</stem>
        <lyric number="1">
          <syllabic>single</syllabic>
          <text font-family="Times New Roman">gua</text>
          </lyric>
        <lyric number="2">
          <syllabic>single</syllabic>
          <text font-family="Times New Roman">ta</text>
          </lyric>
        </note>
      <note default-x="69.60" default-y="-211.11">
        <pitch>
          <step>D</step>
          <octave>4</octave>
          </pitch>
        <duration>2</duration>
        <voice>1</voice>
        <type>quarter</type>
        <stem>up</stem>
        <lyric number="1">
          <syllabic>single</syllabic>
          <text font-family="Times New Roman">gua</text>
          </lyric>
        <lyric number="2">
          <syllabic>single</syllabic>
          <text font-family="Times New Roman">ta</text>
          </lyric>
        </note>
      <note default-x="117.63" default-y="-216.11">
        <pitch>
          <step>C</step>
          <octave>4</octave>
          </pitch>
        <duration>2</duration>
        <voice>1</voice>
        <type>quarter</type>
        <stem>up</stem>
        <lyric number="1">
          <syllabic>single</syllabic>
          <text font-family="Times New Roman">gua!</text>
          </lyric>
        <lyric number="2">
          <syllabic>single</syllabic>
          <text font-family="Times New Roman">ta</text>
          </lyric>
        </note>
      <note>
        <rest/>
        <duration>2</duration>
        <voice>1</voice>
        <type>quarter</type>
        </note>
      </measure>
    <measure number="11" width="314.40">
      <note>
        <rest/>
        <duration>8</duration>
        <voice>1</voice>
        </note>
      </measure>
    <measure number="12" width="223.29">
      <note>
        <rest/>
        <duration>8</duration>
        <voice>1</voice>
        </note>
      <barline location="right">
        <bar-style>light-heavy</bar-style>
        </barline>
      </measure>
    </part>
  <part id="P3">
    <measure number="1" width="222.12">
      <print>
        <staff-layout number="1">
          <staff-distance>126.11</staff-distance>
          </staff-layout>
        </print>
      <attributes>
        <divisions>2</divisions>
        <key>
          <fifths>0</fifths>
          </key>
        <time>
          <beats>4</beats>
          <beat-type>4</beat-type>
          </time>
        <clef>
          <sign>G</sign>
          <line>2</line>
          </clef>
        </attributes>
      <note>
        <rest/>
        <duration>8</duration>
        <voice>1</voice>
        </note>
      </measure>
    <measure number="2" width="146.83">
      <note>
        <rest/>
        <duration>8</duration>
        <voice>1</voice>
        </note>
      </measure>
    <measure number="3" width="165.42">
      <note>
        <rest/>
        <duration>8</duration>
        <voice>1</voice>
        </note>
      </measure>
    <measure number="4" width="154.95">
      <note>
        <rest/>
        <duration>8</duration>
        <voice>1</voice>
        </note>
      </measure>
    <measure number="5" width="170.30">
      <note default-x="21.57" default-y="-347.23">
        <pitch>
          <step>C</step>
          <octave>5</octave>
          </pitch>
        <duration>2</duration>
        <voice>1</voice>
        <type>quarter</type>
        <stem>down</stem>
        <lyric number="1">
          <syllabic>single</syllabic>
          <text font-family="Times New Roman">Ka</text>
          </lyric>
        <lyric number="2">
          <syllabic>single</syllabic>
          <text font-family="Times New Roman">do</text>
          </lyric>
        </note>
      <note default-x="58.35" default-y="-342.23">
        <pitch>
          <step>D</step>
          <octave>5</octave>
          </pitch>
        <duration>2</duration>
        <voice>1</voice>
        <type>quarter</type>
        <stem>down</stem>
        <lyric number="1">
          <syllabic>single</syllabic>
          <text font-family="Times New Roman">e</text>
          </lyric>
        <lyric number="2">
          <syllabic>single</syllabic>
          <text font-family="Times New Roman">re</text>
          </lyric>
        </note>
      <note default-x="95.14" default-y="-337.23">
        <pitch>
          <step>E</step>
          <octave>5</octave>
          </pitch>
        <duration>2</duration>
        <voice>1</voice>
        <type>quarter</type>
        <stem>down</stem>
        <lyric number="1">
          <syllabic>single</syllabic>
          <text font-family="Times New Roman">ru</text>
          </lyric>
        <lyric number="2">
          <syllabic>single</syllabic>
          <text font-family="Times New Roman">mi</text>
          </lyric>
        </note>
      <note default-x="131.92" default-y="-332.23">
        <pitch>
          <step>F</step>
          <octave>5</octave>
          </pitch>
        <duration>2</duration>
        <voice>1</voice>
        <type>quarter</type>
        <stem>down</stem>
        <lyric number="1">
          <syllabic>single</syllabic>
          <text font-family="Times New Roman">no</text>
          </lyric>
        <lyric number="2">
          <syllabic>single</syllabic>
          <text font-family="Times New Roman">fa</text>
          </lyric>
        </note>
      </measure>
    <measure number="6" width="156.12">
      <note default-x="21.57" default-y="-337.23">
        <pitch>
          <step>E</step>
          <octave>5</octave>
          </pitch>
        <duration>2</duration>
        <voice>1</voice>
        <type>quarter</type>
        <stem>down</stem>
        <lyric number="1">
          <syllabic>single</syllabic>
          <text font-family="Times New Roman">u</text>
          </lyric>
        <lyric number="2">
          <syllabic>single</syllabic>
          <text font-family="Times New Roman">m</text>
          </lyric>
        </note>
      <note default-x="54.81" default-y="-342.23">
        <pitch>
          <step>D</step>
          <octave>5</octave>
          </pitch>
        <duration>2</duration>
        <voice>1</voice>
        <type>quarter</type>
        <stem>down</stem>
        <lyric number="1">
          <syllabic>single</syllabic>
          <text font-family="Times New Roman">ta</text>
          </lyric>
        <lyric number="2">
          <syllabic>single</syllabic>
          <text font-family="Times New Roman">re</text>
          </lyric>
        </note>
      <note default-x="88.05" default-y="-347.23">
        <pitch>
          <step>C</step>
          <octave>5</octave>
          </pitch>
        <duration>2</duration>
        <voice>1</voice>
        <type>quarter</type>
        <stem>down</stem>
        <lyric number="1">
          <syllabic>single</syllabic>
          <text font-family="Times New Roman">ga</text>
          </lyric>
        <lyric number="2">
          <syllabic>single</syllabic>
          <text font-family="Times New Roman">do</text>
          </lyric>
        </note>
      <note>
        <rest/>
        <duration>2</duration>
        <voice>1</voice>
        <type>quarter</type>
        </note>
      </measure>
    <measure number="7" width="289.52">
      <note default-x="22.20" default-y="-337.23">
        <pitch>
          <step>E</step>
          <octave>5</octave>
          </pitch>
        <duration>2</duration>
        <voice>1</voice>
        <type>quarter</type>
        <stem>down</stem>
        <lyric number="1">
          <syllabic>single</syllabic>
          <text font-family="Times New Roman">Ki</text>
          </lyric>
        <lyric number="2">
          <syllabic>single</syllabic>
          <text font-family="Times New Roman">mi</text>
          </lyric>
        </note>
      <note default-x="88.63" default-y="-332.23">
        <pitch>
          <step>F</step>
          <octave>5</octave>
          </pitch>
        <duration>2</duration>
        <voice>1</voice>
        <type>quarter</type>
        <stem>down</stem>
        <lyric number="1">
          <syllabic>single</syllabic>
          <text font-family="Times New Roman">ko</text>
          </lyric>
        <lyric number="2">
          <syllabic>single</syllabic>
          <text font-family="Times New Roman">fa</text>
          </lyric>
        </note>
      <note default-x="155.06" default-y="-327.23">
        <pitch>
          <step>G</step>
          <octave>5</octave>
          </pitch>
        <duration>2</duration>
        <voice>1</voice>
        <type>quarter</type>
        <stem>down</stem>
        <lyric number="1">
          <syllabic>single</syllabic>
          <text font-family="Times New Roman">e</text>
          </lyric>
        <lyric number="2">
          <syllabic>single</syllabic>
          <text font-family="Times New Roman">so</text>
          </lyric>
        </note>
      <note default-x="221.49" default-y="-322.23">
        <pitch>
          <step>A</step>
          <octave>5</octave>
          </pitch>
        <duration>2</duration>
        <voice>1</voice>
        <type>quarter</type>
        <stem>down</stem>
        <lyric number="1">
          <syllabic>single</syllabic>
          <text font-family="Times New Roman">ke</text>
          </lyric>
        <lyric number="2">
          <syllabic>single</syllabic>
          <text font-family="Times New Roman">la</text>
          </lyric>
        </note>
      </measure>
    <measure number="8" width="251.62">
      <print new-system="yes">
        <staff-layout number="1">
          <staff-distance>126.11</staff-distance>
          </staff-layout>
        </print>
      <note default-x="59.14" default-y="-327.23">
        <pitch>
          <step>G</step>
          <octave>5</octave>
          </pitch>
        <duration>2</duration>
        <voice>1</voice>
        <type>quarter</type>
        <stem>down</stem>
        <lyric number="1">
          <syllabic>single</syllabic>
          <text font-family="Times New Roman">ku</text>
          </lyric>
        <lyric number="2">
          <syllabic>single</syllabic>
          <text font-family="Times New Roman">so</text>
          </lyric>
        </note>
      <note default-x="106.86" default-y="-332.23">
        <pitch>
          <step>F</step>
          <octave>5</octave>
          </pitch>
        <duration>2</duration>
        <voice>1</voice>
        <type>quarter</type>
        <stem>down</stem>
        <lyric number="1">
          <syllabic>single</syllabic>
          <text font-family="Times New Roman">ru</text>
          </lyric>
        <lyric number="2">
          <syllabic>single</syllabic>
          <text font-family="Times New Roman">fa</text>
          </lyric>
        </note>
      <note default-x="154.58" default-y="-337.23">
        <pitch>
          <step>E</step>
          <octave>5</octave>
          </pitch>
        <duration>2</duration>
        <voice>1</voice>
        <type>quarter</type>
        <stem>down</stem>
        <lyric number="1">
          <syllabic>single</syllabic>
          <text font-family="Times New Roman">yo</text>
          </lyric>
        <lyric number="2">
          <syllabic>single</syllabic>
          <text font-family="Times New Roman">mi</text>
          </lyric>
        </note>
      <note>
        <rest/>
        <duration>2</duration>
        <voice>1</voice>
        <type>quarter</type>
        </note>
      </measure>
    <measure number="9" width="312.09">
      <note default-x="21.22" default-y="-347.23">
        <pitch>
          <step>C</step>
          <octave>5</octave>
          </pitch>
        <duration>4</duration>
        <voice>1</voice>
        <type>half</type>
        <stem>down</stem>
        <lyric number="1">
          <syllabic>single</syllabic>
          <text font-family="Times New Roman">gua</text>
          </lyric>
        <lyric number="2">
          <syllabic>single</syllabic>
          <text font-family="Times New Roman">do</text>
          </lyric>
        </note>
      <note default-x="165.68" default-y="-347.23">
        <pitch>
          <step>C</step>
          <octave>5</octave>
          </pitch>
        <duration>4</duration>
        <voice>1</voice>
        <type>half</type>
        <stem>down</stem>
        <lyric number="1">
          <syllabic>single</syllabic>
          <text font-family="Times New Roman">gua</text>
          </lyric>
        <lyric number="2">
          <syllabic>single</syllabic>
          <text font-family="Times New Roman">do</text>
          </lyric>
        </note>
      </measure>
    <measure number="10" width="215.29">
      <note default-x="21.22" default-y="-347.23">
        <pitch>
          <step>C</step>
          <octave>5</octave>
          </pitch>
        <duration>4</duration>
        <voice>1</voice>
        <type>half</type>
        <stem>down</stem>
        <lyric number="1">
          <syllabic>single</syllabic>
          <text font-family="Times New Roman">gua</text>
          </lyric>
        <lyric number="2">
          <syllabic>single</syllabic>
          <text font-family="Times New Roman">do</text>
          </lyric>
        </note>
      <note default-x="117.28" default-y="-347.23">
        <pitch>
          <step>C</step>
          <octave>5</octave>
          </pitch>
        <duration>4</duration>
        <voice>1</voice>
        <type>half</type>
        <stem>down</stem>
        <lyric number="1">
          <syllabic>single</syllabic>
          <text font-family="Times New Roman">gua</text>
          </lyric>
        <lyric number="2">
          <syllabic>single</syllabic>
          <text font-family="Times New Roman">do</text>
          </lyric>
        </note>
      </measure>
    <measure number="11" width="314.40">
      <note default-x="19.69" default-y="-347.23">
        <pitch>
          <step>C</step>
          <octave>5</octave>
          </pitch>
        <duration>1</duration>
        <voice>1</voice>
        <type>eighth</type>
        <stem>down</stem>
        <beam number="1">begin</beam>
        <lyric number="1">
          <syllabic>begin</syllabic>
          <text font-family="Times New Roman">ker</text>
          </lyric>
        <lyric number="2">
          <syllabic>single</syllabic>
          <text font-family="Times New Roman">do</text>
          </lyric>
        </note>
      <note default-x="56.33" default-y="-347.23">
        <pitch>
          <step>C</step>
          <octave>5</octave>
          </pitch>
        <duration>1</duration>
        <voice>1</voice>
        <type>eighth</type>
        <stem>down</stem>
        <beam number="1">end</beam>
        <lyric number="1">
          <syllabic>end</syllabic>
          <text font-family="Times New Roman">ro</text>
          </lyric>
        <lyric number="2">
          <syllabic>single</syllabic>
          <text font-family="Times New Roman">do</text>
          </lyric>
        </note>
      <note default-x="92.97" default-y="-342.23">
        <pitch>
          <step>D</step>
          <octave>5</octave>
          </pitch>
        <duration>1</duration>
        <voice>1</voice>
        <type>eighth</type>
        <stem>down</stem>
        <beam number="1">begin</beam>
        <lyric number="1">
          <syllabic>begin</syllabic>
          <text font-family="Times New Roman">ker</text>
          </lyric>
        <lyric number="2">
          <syllabic>single</syllabic>
          <text font-family="Times New Roman">re</text>
          </lyric>
        </note>
      <note default-x="129.61" default-y="-342.23">
        <pitch>
          <step>D</step>
          <octave>5</octave>
          </pitch>
        <duration>1</duration>
        <voice>1</voice>
        <type>eighth</type>
        <stem>down</stem>
        <beam number="1">end</beam>
        <lyric number="1">
          <syllabic>end</syllabic>
          <text font-family="Times New Roman">ro</text>
          </lyric>
        <lyric number="2">
          <syllabic>single</syllabic>
          <text font-family="Times New Roman">re</text>
          </lyric>
        </note>
      <note default-x="166.25" default-y="-337.23">
        <pitch>
          <step>E</step>
          <octave>5</octave>
          </pitch>
        <duration>1</duration>
        <voice>1</voice>
        <type>eighth</type>
        <stem>down</stem>
        <beam number="1">begin</beam>
        <lyric number="1">
          <syllabic>begin</syllabic>
          <text font-family="Times New Roman">ker</text>
          </lyric>
        <lyric number="2">
          <syllabic>single</syllabic>
          <text font-family="Times New Roman">mi</text>
          </lyric>
        </note>
      <note default-x="202.89" default-y="-337.23">
        <pitch>
          <step>E</step>
          <octave>5</octave>
          </pitch>
        <duration>1</duration>
        <voice>1</voice>
        <type>eighth</type>
        <stem>down</stem>
        <beam number="1">end</beam>
        <lyric number="1">
          <syllabic>end</syllabic>
          <text font-family="Times New Roman">ro</text>
          </lyric>
        <lyric number="2">
          <syllabic>single</syllabic>
          <text font-family="Times New Roman">mi</text>
          </lyric>
        </note>
      <note default-x="239.52" default-y="-332.23">
        <pitch>
          <step>F</step>
          <octave>5</octave>
          </pitch>
        <duration>1</duration>
        <voice>1</voice>
        <type>eighth</type>
        <stem>down</stem>
        <beam number="1">begin</beam>
        <lyric number="1">
          <syllabic>begin</syllabic>
          <text font-family="Times New Roman">ker</text>
          </lyric>
        <lyric number="2">
          <syllabic>single</syllabic>
          <text font-family="Times New Roman">fa</text>
          </lyric>
        </note>
      <note default-x="276.16" default-y="-332.23">
        <pitch>
          <step>F</step>
          <octave>5</octave>
          </pitch>
        <duration>1</duration>
        <voice>1</voice>
        <type>eighth</type>
        <stem>down</stem>
        <beam number="1">end</beam>
        <lyric number="1">
          <syllabic>end</syllabic>
          <text font-family="Times New Roman">ro</text>
          </lyric>
        <lyric number="2">
          <syllabic>single</syllabic>
          <text font-family="Times New Roman">fa</text>
          </lyric>
        </note>
      </measure>
    <measure number="12" width="223.29">
      <note default-x="21.57" default-y="-337.23">
        <pitch>
          <step>E</step>
          <octave>5</octave>
          </pitch>
        <duration>2</duration>
        <voice>1</voice>
        <type>quarter</type>
        <stem>down</stem>
        <lyric number="1">
          <syllabic>single</syllabic>
          <text font-family="Times New Roman">gua</text>
          </lyric>
        <lyric number="2">
          <syllabic>single</syllabic>
          <text font-family="Times New Roman">mi</text>
          </lyric>
        </note>
      <note default-x="69.60" default-y="-342.23">
        <pitch>
          <step>D</step>
          <octave>5</octave>
          </pitch>
        <duration>2</duration>
        <voice>1</voice>
        <type>quarter</type>
        <stem>down</stem>
        <lyric number="1">
          <syllabic>single</syllabic>
          <text font-family="Times New Roman">gua</text>
          </lyric>
        <lyric number="2">
          <syllabic>single</syllabic>
          <text font-family="Times New Roman">re</text>
          </lyric>
        </note>
      <note default-x="117.63" default-y="-347.23">
        <pitch>
          <step>C</step>
          <octave>5</octave>
          </pitch>
        <duration>2</duration>
        <voice>1</voice>
        <type>quarter</type>
        <stem>down</stem>
        <lyric number="1">
          <syllabic>single</syllabic>
          <text font-family="Times New Roman">gua!</text>
          </lyric>
        <lyric number="2">
          <syllabic>single</syllabic>
          <text font-family="Times New Roman">do</text>
          </lyric>
        </note>
      <note>
        <rest/>
        <duration>2</duration>
        <voice>1</voice>
        <type>quarter</type>
        </note>
      <barline location="right">
        <bar-style>light-heavy</bar-style>
        </barline>
      </measure>
    </part>
  </score-partwise>
